M48
; DRILL file {KiCad (6.0.6)} date Thu Sep 22 18:41:49 2022
; FORMAT={-:-/ absolute / inch / decimal}
; #@! TF.CreationDate,2022-09-22T18:41:49+01:00
; #@! TF.GenerationSoftware,Kicad,Pcbnew,(6.0.6)
; #@! TF.FileFunction,Plated,1,4,PTH
FMAT,2
INCH
; #@! TA.AperFunction,Plated,PTH,ViaDrill
T1C0.0079
; #@! TA.AperFunction,Plated,PTH,ViaDrill
T2C0.0157
; #@! TA.AperFunction,Plated,PTH,ComponentDrill
T3C0.0276
; #@! TA.AperFunction,Plated,PTH,ComponentDrill
T4C0.0394
; #@! TA.AperFunction,Plated,PTH,ComponentDrill
T5C0.0598
%
G90
G05
T1
X4.8583Y-3.3898
X4.9016Y-3.3898
X5.1732Y-3.622
X5.1732Y-3.6811
X5.1732Y-3.7205
X5.1732Y-3.7598
X5.2126Y-3.0
X5.2835Y-3.6024
X5.2835Y-3.6417
X5.2835Y-3.7402
X5.2835Y-3.7795
X5.2953Y-3.4252
X5.3425Y-3.8937
X5.378Y-3.563
X5.4016Y-3.4082
X5.4016Y-3.8937
X5.4409Y-3.3937
X5.4409Y-3.8937
X5.4409Y-4.0079
X5.4646Y-2.9606
X5.4685Y-3.5854
X5.4803Y-3.4528
X5.4803Y-3.8937
X5.5Y-3.563
X5.5197Y-2.9252
X5.5197Y-3.4528
X5.5386Y-3.5629
X5.5433Y-3.1102
X5.5564Y-3.8964
X5.6181Y-3.6614
X5.6181Y-3.7008
X5.7283Y-3.622
X5.7283Y-3.6811
X5.7283Y-3.7992
X5.748Y-3.8189
X5.7717Y-3.8386
X5.7823Y-3.7028
X5.7992Y-3.7402
X5.7992Y-3.7992
X5.8Y-2.7
X5.8228Y-2.752
X5.8228Y-3.7205
X5.8465Y-2.8031
X5.8465Y-3.8622
X5.8479Y-3.7455
X5.8701Y-2.8465
X5.8701Y-3.6732
X5.8754Y-3.718
X5.876Y-3.7717
X5.8858Y-3.8721
X5.8976Y-2.9488
X5.9173Y-2.9016
X5.9173Y-3.876
X5.937Y-3.6299
X5.9409Y-3.0
X5.9449Y-3.9331
X5.9646Y-3.0472
X5.9646Y-3.6024
X5.9882Y-3.0984
X5.9882Y-3.5413
X6.0039Y-3.8898
X6.0079Y-3.5591
X6.0118Y-3.1496
X6.0354Y-3.4764
X6.0827Y-3.2992
X6.189Y-3.5984
X6.189Y-3.7717
X6.189Y-3.8386
X6.2205Y-3.7953
X6.2441Y-3.8189
X6.2717Y-3.8386
T2
X4.7234Y-3.8022
X4.7244Y-3.4134
X5.0256Y-3.0217
X5.0748Y-2.8858
X5.1299Y-3.4173
X5.1457Y-4.0394
X5.1569Y-3.8086
X5.1575Y-3.8858
X5.2047Y-3.4173
X5.2323Y-2.9606
X5.2408Y-4.0439
X5.248Y-2.7874
X5.3228Y-3.5571
X5.3386Y-4.1811
X5.4252Y-4.1811
X5.4703Y-4.3187
X5.4703Y-4.3581
X5.4882Y-4.0118
X5.5096Y-4.3187
X5.5096Y-4.3581
X5.5118Y-4.1811
X5.549Y-4.3187
X5.549Y-4.3581
X5.5884Y-4.3187
X5.5884Y-4.3581
X5.5888Y-4.0096
X5.5984Y-4.1811
X5.6929Y-3.4173
X5.6929Y-4.063
X5.7441Y-3.5669
X5.7459Y-4.3187
X5.7459Y-4.3581
X5.7677Y-3.4213
X5.7852Y-4.3187
X5.7852Y-4.3581
X5.8031Y-4.0014
X5.8031Y-4.1024
X5.8246Y-4.3187
X5.8246Y-4.3581
X5.864Y-4.3187
X5.864Y-4.3581
X6.1417Y-2.563
X6.1417Y-2.6339
X6.3189Y-4.3071
X6.3346Y-4.2283
X6.3346Y-4.3858
X6.4134Y-4.2205
X6.4134Y-4.3937
X6.4921Y-4.2283
X6.4921Y-4.3858
X6.5Y-4.3071
T3
X4.7283Y-4.0709
X5.0472Y-3.2756
X5.1575Y-3.2756
X5.2677Y-3.2756
X6.1024Y-3.3858
X6.1024Y-3.5039
X6.1024Y-3.6181
T4
X4.7234Y-3.6988
X4.7234Y-3.9094
X4.7244Y-3.5039
X4.7248Y-2.9504
X4.7248Y-3.0504
X4.7248Y-3.1504
X4.7248Y-3.2504
X4.8234Y-3.6988
X4.8234Y-3.9094
X4.8244Y-3.5039
X4.8248Y-2.9504
X4.8248Y-3.0504
X4.8248Y-3.1504
X4.8248Y-3.2504
X4.95Y-2.6
X4.95Y-2.7
X4.9551Y-4.3984
X5.05Y-2.6
X5.05Y-2.7
X5.0551Y-4.0984
X5.0551Y-4.5984
X5.15Y-2.6
X5.15Y-2.7
X5.25Y-2.6
X5.25Y-2.7
X5.35Y-2.6
X5.35Y-2.7
X5.6498Y-2.6
X5.7498Y-2.6
X5.8498Y-2.6
X5.9094Y-3.9984
X5.9094Y-4.0984
X5.9498Y-2.6
X6.0094Y-3.9984
X6.0094Y-4.0984
X6.0498Y-2.6
X6.1094Y-3.9984
X6.1094Y-4.0984
X6.2094Y-3.9984
X6.2094Y-4.0984
X6.3998Y-2.6
X6.3998Y-2.7
X6.3998Y-2.8
X6.3998Y-2.9
X6.3998Y-3.0
X6.3998Y-3.1
X6.3998Y-3.2
X6.3998Y-3.3
X6.3998Y-3.4
X6.3998Y-3.5
X6.3998Y-3.6
X6.3998Y-3.7
X6.3998Y-3.8
X6.3998Y-3.9
X6.3998Y-4.0
X6.3998Y-4.1
X6.4998Y-2.6
X6.4998Y-2.7
X6.4998Y-2.8
X6.4998Y-2.9
X6.4998Y-3.0
X6.4998Y-3.1
X6.4998Y-3.2
X6.4998Y-3.3
X6.4998Y-3.4
X6.4998Y-3.5
X6.4998Y-3.6
X6.4998Y-3.7
X6.4998Y-3.8
X6.4998Y-3.9
X6.4998Y-4.0
X6.4998Y-4.1
T5
X6.4134Y-4.3071
X6.4134Y-4.5071
T0
M30
