%TF.GenerationSoftware,KiCad,Pcbnew,(6.0.6)*%
%TF.CreationDate,2022-09-22T18:41:47+01:00*%
%TF.ProjectId,ConverterBoard,436f6e76-6572-4746-9572-426f6172642e,rev?*%
%TF.SameCoordinates,Original*%
%TF.FileFunction,Soldermask,Bot*%
%TF.FilePolarity,Negative*%
%FSLAX46Y46*%
G04 Gerber Fmt 4.6, Leading zero omitted, Abs format (unit mm)*
G04 Created by KiCad (PCBNEW (6.0.6)) date 2022-09-22 18:41:47*
%MOMM*%
%LPD*%
G01*
G04 APERTURE LIST*
%ADD10C,2.700000*%
%ADD11R,1.700000X1.700000*%
%ADD12O,1.700000X1.700000*%
%ADD13R,1.500000X1.500000*%
%ADD14R,3.000000X3.000000*%
%ADD15C,3.000000*%
%ADD16C,1.800000*%
G04 APERTURE END LIST*
D10*
%TO.C,REF\u002A\u002A*%
X163500000Y-122500000D03*
%TD*%
%TO.C,REF\u002A\u002A*%
X120500000Y-122500000D03*
%TD*%
%TO.C,REF\u002A\u002A*%
X120500000Y-65500000D03*
%TD*%
%TO.C,REF\u002A\u002A*%
X155500000Y-72500000D03*
%TD*%
D11*
%TO.C,J3*%
X119975000Y-93950000D03*
D12*
X122515000Y-93950000D03*
%TD*%
D13*
%TO.C,TP3*%
X155000000Y-86000000D03*
%TD*%
D12*
%TO.C,ST-LINK1*%
X125730000Y-68580000D03*
X125730000Y-66040000D03*
X128270000Y-68580000D03*
X128270000Y-66040000D03*
X130810000Y-68580000D03*
X130810000Y-66040000D03*
X133350000Y-68580000D03*
X133350000Y-66040000D03*
X135890000Y-68580000D03*
D11*
X135890000Y-66040000D03*
%TD*%
D14*
%TO.C,J1*%
X162900000Y-109400000D03*
D15*
X162900000Y-114480000D03*
%TD*%
D16*
%TO.C,RV1*%
X128400000Y-104100000D03*
X125860000Y-111720000D03*
X128400000Y-116800000D03*
%TD*%
D11*
%TO.C,ENCODER1*%
X153665000Y-66040000D03*
D12*
X151125000Y-66040000D03*
X148585000Y-66040000D03*
X146045000Y-66040000D03*
X143505000Y-66040000D03*
%TD*%
%TO.C,J8*%
X122550000Y-82560000D03*
X120010000Y-82560000D03*
X122550000Y-80020000D03*
X120010000Y-80020000D03*
X122550000Y-77480000D03*
X120010000Y-77480000D03*
X122550000Y-74940000D03*
D11*
X120010000Y-74940000D03*
%TD*%
%TO.C,J5*%
X119975000Y-99300000D03*
D12*
X122515000Y-99300000D03*
%TD*%
D13*
%TO.C,TP1*%
X155000000Y-91900000D03*
%TD*%
%TO.C,TP6*%
X128200000Y-83200000D03*
%TD*%
%TO.C,TP4*%
X133800000Y-83200000D03*
%TD*%
%TO.C,TP2*%
X155000000Y-89000000D03*
%TD*%
%TO.C,TP7*%
X120100000Y-103400000D03*
%TD*%
D11*
%TO.C,J2*%
X120000000Y-89000000D03*
D12*
X122540000Y-89000000D03*
%TD*%
D13*
%TO.C,TP5*%
X131000000Y-83200000D03*
%TD*%
D11*
%TO.C,J6*%
X162555000Y-66040000D03*
D12*
X165095000Y-66040000D03*
X162555000Y-68580000D03*
X165095000Y-68580000D03*
X162555000Y-71120000D03*
X165095000Y-71120000D03*
X162555000Y-73660000D03*
X165095000Y-73660000D03*
X162555000Y-76200000D03*
X165095000Y-76200000D03*
X162555000Y-78740000D03*
X165095000Y-78740000D03*
X162555000Y-81280000D03*
X165095000Y-81280000D03*
X162555000Y-83820000D03*
X165095000Y-83820000D03*
X162555000Y-86360000D03*
X165095000Y-86360000D03*
X162555000Y-88900000D03*
X165095000Y-88900000D03*
X162555000Y-91440000D03*
X165095000Y-91440000D03*
X162555000Y-93980000D03*
X165095000Y-93980000D03*
X162555000Y-96520000D03*
X165095000Y-96520000D03*
X162555000Y-99060000D03*
X165095000Y-99060000D03*
X162555000Y-101600000D03*
X165095000Y-101600000D03*
X162555000Y-104140000D03*
X165095000Y-104140000D03*
%TD*%
D11*
%TO.C,J7*%
X150100000Y-104100000D03*
D12*
X150100000Y-101560000D03*
X152640000Y-104100000D03*
X152640000Y-101560000D03*
X155180000Y-104100000D03*
X155180000Y-101560000D03*
X157720000Y-104100000D03*
X157720000Y-101560000D03*
%TD*%
M02*
