%TF.GenerationSoftware,KiCad,Pcbnew,(6.0.6)*%
%TF.CreationDate,2022-09-22T18:41:47+01:00*%
%TF.ProjectId,ConverterBoard,436f6e76-6572-4746-9572-426f6172642e,rev?*%
%TF.SameCoordinates,Original*%
%TF.FileFunction,Copper,L1,Top*%
%TF.FilePolarity,Positive*%
%FSLAX46Y46*%
G04 Gerber Fmt 4.6, Leading zero omitted, Abs format (unit mm)*
G04 Created by KiCad (PCBNEW (6.0.6)) date 2022-09-22 18:41:47*
%MOMM*%
%LPD*%
G01*
G04 APERTURE LIST*
G04 Aperture macros list*
%AMRoundRect*
0 Rectangle with rounded corners*
0 $1 Rounding radius*
0 $2 $3 $4 $5 $6 $7 $8 $9 X,Y pos of 4 corners*
0 Add a 4 corners polygon primitive as box body*
4,1,4,$2,$3,$4,$5,$6,$7,$8,$9,$2,$3,0*
0 Add four circle primitives for the rounded corners*
1,1,$1+$1,$2,$3*
1,1,$1+$1,$4,$5*
1,1,$1+$1,$6,$7*
1,1,$1+$1,$8,$9*
0 Add four rect primitives between the rounded corners*
20,1,$1+$1,$2,$3,$4,$5,0*
20,1,$1+$1,$4,$5,$6,$7,0*
20,1,$1+$1,$6,$7,$8,$9,0*
20,1,$1+$1,$8,$9,$2,$3,0*%
%AMFreePoly0*
4,1,13,0.900000,0.500000,3.600000,0.500000,3.600000,-0.500000,0.900000,-0.500000,0.400000,-1.000000,-0.400000,-1.000000,-0.900000,-0.500000,-3.600000,-0.500000,-3.600000,0.500000,-0.900000,0.500000,-0.400000,1.000000,0.400000,1.000000,0.900000,0.500000,0.900000,0.500000,$1*%
G04 Aperture macros list end*
%TA.AperFunction,SMDPad,CuDef*%
%ADD10RoundRect,0.075000X-0.700000X-0.075000X0.700000X-0.075000X0.700000X0.075000X-0.700000X0.075000X0*%
%TD*%
%TA.AperFunction,SMDPad,CuDef*%
%ADD11RoundRect,0.075000X-0.075000X-0.700000X0.075000X-0.700000X0.075000X0.700000X-0.075000X0.700000X0*%
%TD*%
%TA.AperFunction,SMDPad,CuDef*%
%ADD12RoundRect,0.250000X0.475000X-0.250000X0.475000X0.250000X-0.475000X0.250000X-0.475000X-0.250000X0*%
%TD*%
%TA.AperFunction,ComponentPad*%
%ADD13R,1.700000X1.700000*%
%TD*%
%TA.AperFunction,ComponentPad*%
%ADD14O,1.700000X1.700000*%
%TD*%
%TA.AperFunction,ComponentPad*%
%ADD15R,1.500000X1.500000*%
%TD*%
%TA.AperFunction,SMDPad,CuDef*%
%ADD16RoundRect,0.250000X-0.475000X0.250000X-0.475000X-0.250000X0.475000X-0.250000X0.475000X0.250000X0*%
%TD*%
%TA.AperFunction,SMDPad,CuDef*%
%ADD17RoundRect,0.250000X0.450000X-0.350000X0.450000X0.350000X-0.450000X0.350000X-0.450000X-0.350000X0*%
%TD*%
%TA.AperFunction,ComponentPad*%
%ADD18R,3.000000X3.000000*%
%TD*%
%TA.AperFunction,ComponentPad*%
%ADD19C,3.000000*%
%TD*%
%TA.AperFunction,SMDPad,CuDef*%
%ADD20RoundRect,0.250000X0.450000X-0.325000X0.450000X0.325000X-0.450000X0.325000X-0.450000X-0.325000X0*%
%TD*%
%TA.AperFunction,ComponentPad*%
%ADD21C,1.800000*%
%TD*%
%TA.AperFunction,SMDPad,CuDef*%
%ADD22RoundRect,0.250000X-0.250000X-0.475000X0.250000X-0.475000X0.250000X0.475000X-0.250000X0.475000X0*%
%TD*%
%TA.AperFunction,SMDPad,CuDef*%
%ADD23RoundRect,0.250000X-0.450000X0.350000X-0.450000X-0.350000X0.450000X-0.350000X0.450000X0.350000X0*%
%TD*%
%TA.AperFunction,SMDPad,CuDef*%
%ADD24RoundRect,0.250000X0.350000X0.450000X-0.350000X0.450000X-0.350000X-0.450000X0.350000X-0.450000X0*%
%TD*%
%TA.AperFunction,SMDPad,CuDef*%
%ADD25RoundRect,0.250000X0.250000X0.475000X-0.250000X0.475000X-0.250000X-0.475000X0.250000X-0.475000X0*%
%TD*%
%TA.AperFunction,SMDPad,CuDef*%
%ADD26RoundRect,0.150000X-0.512500X-0.150000X0.512500X-0.150000X0.512500X0.150000X-0.512500X0.150000X0*%
%TD*%
%TA.AperFunction,SMDPad,CuDef*%
%ADD27R,0.700000X2.500000*%
%TD*%
%TA.AperFunction,SMDPad,CuDef*%
%ADD28FreePoly0,90.000000*%
%TD*%
%TA.AperFunction,ViaPad*%
%ADD29C,0.800000*%
%TD*%
%TA.AperFunction,ViaPad*%
%ADD30C,0.565000*%
%TD*%
%TA.AperFunction,Conductor*%
%ADD31C,0.100000*%
%TD*%
%TA.AperFunction,Conductor*%
%ADD32C,0.300000*%
%TD*%
%TA.AperFunction,Conductor*%
%ADD33C,0.800000*%
%TD*%
G04 APERTURE END LIST*
D10*
%TO.P,U3,1,VBAT*%
%TO.N,+3.3V*%
X132755000Y-90992000D03*
%TO.P,U3,2,PC13*%
%TO.N,TFT_D13*%
X132755000Y-91492000D03*
%TO.P,U3,3,PC14-OSC32_IN*%
%TO.N,TFT_D14*%
X132755000Y-91992000D03*
%TO.P,U3,4,PC15-OSC32_OUT*%
%TO.N,TFT_D15*%
X132755000Y-92492000D03*
%TO.P,U3,5,PF0-OSC_IN*%
%TO.N,Net-(R5-Pad1)*%
X132755000Y-92992000D03*
%TO.P,U3,6,PF1-OSC_OUT*%
%TO.N,SPI_SCK*%
X132755000Y-93492000D03*
%TO.P,U3,7,PG0-NRST*%
%TO.N,Net-(R6-Pad1)*%
X132755000Y-93992000D03*
%TO.P,U3,8,PC0*%
%TO.N,TFT_D0*%
X132755000Y-94492000D03*
%TO.P,U3,9,PC1*%
%TO.N,TFT_D1*%
X132755000Y-94992000D03*
%TO.P,U3,10,PC2*%
%TO.N,TFT_D2*%
X132755000Y-95492000D03*
%TO.P,U3,11,PC3*%
%TO.N,TFT_D3*%
X132755000Y-95992000D03*
%TO.P,U3,12,PA0*%
%TO.N,Net-(C3-Pad1)*%
X132755000Y-96492000D03*
%TO.P,U3,13,PA1*%
%TO.N,Net-(C2-Pad1)*%
X132755000Y-96992000D03*
%TO.P,U3,14,PA2*%
%TO.N,unconnected-(U3-Pad14)*%
X132755000Y-97492000D03*
%TO.P,U3,15,VSS*%
%TO.N,GND*%
X132755000Y-97992000D03*
%TO.P,U3,16,VDD*%
%TO.N,+3.3V*%
X132755000Y-98492000D03*
D11*
%TO.P,U3,17,PA3*%
%TO.N,unconnected-(U3-Pad17)*%
X134680000Y-100417000D03*
%TO.P,U3,18,PA4*%
%TO.N,Net-(C2-Pad1)*%
X135180000Y-100417000D03*
%TO.P,U3,19,PA5*%
%TO.N,PA5*%
X135680000Y-100417000D03*
%TO.P,U3,20,PA6*%
%TO.N,COMP1_OUT*%
X136180000Y-100417000D03*
%TO.P,U3,21,PA7*%
%TO.N,PA7*%
X136680000Y-100417000D03*
%TO.P,U3,22,PC4*%
%TO.N,TFT_D4*%
X137180000Y-100417000D03*
%TO.P,U3,23,PC5*%
%TO.N,TFT_D5*%
X137680000Y-100417000D03*
%TO.P,U3,24,PB0*%
%TO.N,PB0*%
X138180000Y-100417000D03*
%TO.P,U3,25,PB1*%
%TO.N,Net-(C4-Pad1)*%
X138680000Y-100417000D03*
%TO.P,U3,26,PB2*%
%TO.N,TFT_WR*%
X139180000Y-100417000D03*
%TO.P,U3,27,VSSA*%
%TO.N,GND*%
X139680000Y-100417000D03*
%TO.P,U3,28,VREF+*%
%TO.N,Net-(C10-Pad2)*%
X140180000Y-100417000D03*
%TO.P,U3,29,VDDA*%
%TO.N,+3.3VA*%
X140680000Y-100417000D03*
%TO.P,U3,30,PB10*%
%TO.N,PB10*%
X141180000Y-100417000D03*
%TO.P,U3,31,VSS*%
%TO.N,GND*%
X141680000Y-100417000D03*
%TO.P,U3,32,VDD*%
%TO.N,+3.3V*%
X142180000Y-100417000D03*
D10*
%TO.P,U3,33,PB11*%
%TO.N,TFT_CS*%
X144105000Y-98492000D03*
%TO.P,U3,34,PB12*%
%TO.N,TFT_RS*%
X144105000Y-97992000D03*
%TO.P,U3,35,PB13*%
%TO.N,PB13*%
X144105000Y-97492000D03*
%TO.P,U3,36,PB14*%
%TO.N,TFT_RD*%
X144105000Y-96992000D03*
%TO.P,U3,37,PB15*%
%TO.N,TFT_RESET*%
X144105000Y-96492000D03*
%TO.P,U3,38,PC6*%
%TO.N,TFT_D6*%
X144105000Y-95992000D03*
%TO.P,U3,39,PC7*%
%TO.N,TFT_D7*%
X144105000Y-95492000D03*
%TO.P,U3,40,PC8*%
%TO.N,TFT_D8*%
X144105000Y-94992000D03*
%TO.P,U3,41,PC9*%
%TO.N,TFT_D9*%
X144105000Y-94492000D03*
%TO.P,U3,42,PA8*%
%TO.N,TIM1_CH1*%
X144105000Y-93992000D03*
%TO.P,U3,43,PA9*%
%TO.N,TIM1_CH2*%
X144105000Y-93492000D03*
%TO.P,U3,44,PA10*%
%TO.N,PA10*%
X144105000Y-92992000D03*
%TO.P,U3,45,PA11*%
%TO.N,SPI_MOSI*%
X144105000Y-92492000D03*
%TO.P,U3,46,PA12*%
%TO.N,TIM16_CH2*%
X144105000Y-91992000D03*
%TO.P,U3,47,VSS*%
%TO.N,GND*%
X144105000Y-91492000D03*
%TO.P,U3,48,VDD*%
%TO.N,+3.3V*%
X144105000Y-90992000D03*
D11*
%TO.P,U3,49,PA13*%
%TO.N,Net-(R2-Pad2)*%
X142180000Y-89067000D03*
%TO.P,U3,50,PA14*%
%TO.N,Net-(R3-Pad2)*%
X141680000Y-89067000D03*
%TO.P,U3,51,PA15*%
%TO.N,Net-(R4-Pad2)*%
X141180000Y-89067000D03*
%TO.P,U3,52,PC10*%
%TO.N,TFT_D10*%
X140680000Y-89067000D03*
%TO.P,U3,53,PC11*%
%TO.N,TFT_D11*%
X140180000Y-89067000D03*
%TO.P,U3,54,PC12*%
%TO.N,TFT_D12*%
X139680000Y-89067000D03*
%TO.P,U3,55,PD2*%
%TO.N,SPI_RESET*%
X139180000Y-89067000D03*
%TO.P,U3,56,PB3*%
%TO.N,Net-(R1-Pad1)*%
X138680000Y-89067000D03*
%TO.P,U3,57,PB4*%
%TO.N,Net-(ENCODER1-Pad1)*%
X138180000Y-89067000D03*
%TO.P,U3,58,PB5*%
%TO.N,TIM3_CH2*%
X137680000Y-89067000D03*
%TO.P,U3,59,PB6*%
%TO.N,TIM8_CH1*%
X137180000Y-89067000D03*
%TO.P,U3,60,PB7*%
%TO.N,TIM4_CH2*%
X136680000Y-89067000D03*
%TO.P,U3,61,PB8-boot0*%
%TO.N,SPI_DC*%
X136180000Y-89067000D03*
%TO.P,U3,62,PB9*%
%TO.N,SPI_CS*%
X135680000Y-89067000D03*
%TO.P,U3,63,VSS*%
%TO.N,GND*%
X135180000Y-89067000D03*
%TO.P,U3,64,VDD*%
%TO.N,+3.3V*%
X134680000Y-89067000D03*
%TD*%
D12*
%TO.P,C1,1*%
%TO.N,+5V*%
X144075000Y-119425000D03*
%TO.P,C1,2*%
%TO.N,GND*%
X144075000Y-117525000D03*
%TD*%
%TO.P,C8,1*%
%TO.N,GND*%
X142200000Y-105050000D03*
%TO.P,C8,2*%
%TO.N,+3.3VA*%
X142200000Y-103150000D03*
%TD*%
D13*
%TO.P,J3,1,Pin_1*%
%TO.N,GND*%
X119975000Y-93950000D03*
D14*
%TO.P,J3,2,Pin_2*%
%TO.N,Net-(C3-Pad1)*%
X122515000Y-93950000D03*
%TD*%
D15*
%TO.P,TP3,1,1*%
%TO.N,TIM16_CH2*%
X155000000Y-86000000D03*
%TD*%
D16*
%TO.P,C7,1*%
%TO.N,Net-(C7-Pad1)*%
X135185000Y-113715000D03*
%TO.P,C7,2*%
%TO.N,GND*%
X135185000Y-115615000D03*
%TD*%
D14*
%TO.P,ST-LINK1,10,Pin_10*%
%TO.N,SWO*%
X125730000Y-68580000D03*
%TO.P,ST-LINK1,9,Pin_9*%
%TO.N,unconnected-(ST-LINK1-Pad9)*%
X125730000Y-66040000D03*
%TO.P,ST-LINK1,8,Pin_8*%
%TO.N,+3.3V*%
X128270000Y-68580000D03*
%TO.P,ST-LINK1,7,Pin_7*%
X128270000Y-66040000D03*
%TO.P,ST-LINK1,6,Pin_6*%
%TO.N,SWDCLK*%
X130810000Y-68580000D03*
%TO.P,ST-LINK1,5,Pin_5*%
%TO.N,JTDI*%
X130810000Y-66040000D03*
%TO.P,ST-LINK1,4,Pin_4*%
%TO.N,GND*%
X133350000Y-68580000D03*
%TO.P,ST-LINK1,3,Pin_3*%
X133350000Y-66040000D03*
%TO.P,ST-LINK1,2,Pin_2*%
%TO.N,SWDIO*%
X135890000Y-68580000D03*
D13*
%TO.P,ST-LINK1,1,Pin_1*%
%TO.N,NRST*%
X135890000Y-66040000D03*
%TD*%
D16*
%TO.P,C5,1*%
%TO.N,+3.3V*%
X144075000Y-113710000D03*
%TO.P,C5,2*%
%TO.N,GND*%
X144075000Y-115610000D03*
%TD*%
D12*
%TO.P,C6,1*%
%TO.N,+5V*%
X135185000Y-119425000D03*
%TO.P,C6,2*%
%TO.N,GND*%
X135185000Y-117525000D03*
%TD*%
D17*
%TO.P,R1,1*%
%TO.N,Net-(R1-Pad1)*%
X138700000Y-84800000D03*
%TO.P,R1,2*%
%TO.N,SWO*%
X138700000Y-82800000D03*
%TD*%
D18*
%TO.P,J1,1,Pin_1*%
%TO.N,GND*%
X162900000Y-109400000D03*
D19*
%TO.P,J1,2,Pin_2*%
%TO.N,+5V*%
X162900000Y-114480000D03*
%TD*%
D20*
%TO.P,L1,1,1*%
%TO.N,Net-(C7-Pad1)*%
X135185000Y-111805000D03*
%TO.P,L1,2,2*%
%TO.N,+3.3VA*%
X135185000Y-109755000D03*
%TD*%
D21*
%TO.P,RV1,1,1*%
%TO.N,+3.3VA*%
X128400000Y-104100000D03*
%TO.P,RV1,2,2*%
%TO.N,Net-(C4-Pad1)*%
X125860000Y-111720000D03*
%TO.P,RV1,3,3*%
%TO.N,GND*%
X128400000Y-116800000D03*
%TD*%
D22*
%TO.P,C12,1*%
%TO.N,+3.3V*%
X144145000Y-101600000D03*
%TO.P,C12,2*%
%TO.N,GND*%
X146045000Y-101600000D03*
%TD*%
D16*
%TO.P,C3,1*%
%TO.N,Net-(C3-Pad1)*%
X126200000Y-93950000D03*
%TO.P,C3,2*%
%TO.N,GND*%
X126200000Y-95850000D03*
%TD*%
D23*
%TO.P,R4,1*%
%TO.N,JTDI*%
X140800000Y-82800000D03*
%TO.P,R4,2*%
%TO.N,Net-(R4-Pad2)*%
X140800000Y-84800000D03*
%TD*%
D24*
%TO.P,R5,1*%
%TO.N,Net-(R5-Pad1)*%
X128100000Y-88900000D03*
%TO.P,R5,2*%
%TO.N,Net-(J2-Pad2)*%
X126100000Y-88900000D03*
%TD*%
D25*
%TO.P,C14,1*%
%TO.N,+3.3V*%
X132700000Y-88350000D03*
%TO.P,C14,2*%
%TO.N,GND*%
X130800000Y-88350000D03*
%TD*%
D13*
%TO.P,ENCODER1,1,Pin_1*%
%TO.N,Net-(ENCODER1-Pad1)*%
X153665000Y-66040000D03*
D14*
%TO.P,ENCODER1,2,Pin_2*%
%TO.N,GND*%
X151125000Y-66040000D03*
%TO.P,ENCODER1,3,Pin_3*%
%TO.N,SWO*%
X148585000Y-66040000D03*
%TO.P,ENCODER1,4,Pin_4*%
%TO.N,GND*%
X146045000Y-66040000D03*
%TO.P,ENCODER1,5,Pin_5*%
%TO.N,JTDI*%
X143505000Y-66040000D03*
%TD*%
D26*
%TO.P,D1,1,IO1*%
%TO.N,NRST*%
X134462500Y-74250000D03*
%TO.P,D1,2,GND*%
%TO.N,GND*%
X134462500Y-75200000D03*
%TO.P,D1,3,IO2*%
%TO.N,SWO*%
X134462500Y-76150000D03*
%TO.P,D1,4,IO3*%
%TO.N,JTDI*%
X136737500Y-76150000D03*
%TO.P,D1,5,IO4*%
%TO.N,SWDCLK*%
X136737500Y-75200000D03*
%TO.P,D1,6,IO5*%
%TO.N,SWDIO*%
X136737500Y-74250000D03*
%TD*%
D12*
%TO.P,C9,1*%
%TO.N,GND*%
X140000000Y-105050000D03*
%TO.P,C9,2*%
%TO.N,Net-(C10-Pad2)*%
X140000000Y-103150000D03*
%TD*%
D23*
%TO.P,R3,1*%
%TO.N,SWDCLK*%
X142900000Y-82800000D03*
%TO.P,R3,2*%
%TO.N,Net-(R3-Pad2)*%
X142900000Y-84800000D03*
%TD*%
D16*
%TO.P,C4,1*%
%TO.N,Net-(C4-Pad1)*%
X135600000Y-103150000D03*
%TO.P,C4,2*%
%TO.N,GND*%
X135600000Y-105050000D03*
%TD*%
D27*
%TO.P,U1,1,VIN*%
%TO.N,+5V*%
X146679000Y-118698000D03*
D28*
%TO.P,U1,2,GND*%
%TO.N,GND*%
X148179000Y-116348000D03*
D27*
%TO.P,U1,3,CE*%
%TO.N,+5V*%
X149679000Y-118698000D03*
%TO.P,U1,4,NC*%
%TO.N,unconnected-(U1-Pad4)*%
X149679000Y-113998000D03*
%TO.P,U1,5,VOUT*%
%TO.N,+3.3V*%
X146679000Y-113998000D03*
%TD*%
D12*
%TO.P,C2,1*%
%TO.N,Net-(C2-Pad1)*%
X126200000Y-99350000D03*
%TO.P,C2,2*%
%TO.N,GND*%
X126200000Y-97450000D03*
%TD*%
D16*
%TO.P,C19,1*%
%TO.N,+3.3V*%
X128900000Y-74860000D03*
%TO.P,C19,2*%
%TO.N,GND*%
X128900000Y-76760000D03*
%TD*%
D14*
%TO.P,J8,8,Pin_8*%
%TO.N,SPI_RESET*%
X122550000Y-82560000D03*
%TO.P,J8,7,Pin_7*%
%TO.N,SPI_DC*%
X120010000Y-82560000D03*
%TO.P,J8,6,Pin_6*%
%TO.N,SPI_CS*%
X122550000Y-80020000D03*
%TO.P,J8,5,Pin_5*%
%TO.N,SPI_MOSI*%
X120010000Y-80020000D03*
%TO.P,J8,4,Pin_4*%
%TO.N,GND*%
X122550000Y-77480000D03*
%TO.P,J8,3,Pin_3*%
%TO.N,SPI_SCK*%
X120010000Y-77480000D03*
%TO.P,J8,2,Pin_2*%
%TO.N,+3.3V*%
X122550000Y-74940000D03*
D13*
%TO.P,J8,1,Pin_1*%
%TO.N,Net-(J8-Pad1)*%
X120010000Y-74940000D03*
%TD*%
D24*
%TO.P,R7,1*%
%TO.N,+3.3V*%
X122200000Y-71000000D03*
%TO.P,R7,2*%
%TO.N,Net-(J8-Pad1)*%
X120200000Y-71000000D03*
%TD*%
D13*
%TO.P,J5,1,Pin_1*%
%TO.N,GND*%
X119975000Y-99300000D03*
D14*
%TO.P,J5,2,Pin_2*%
%TO.N,Net-(C2-Pad1)*%
X122515000Y-99300000D03*
%TD*%
D23*
%TO.P,R2,1*%
%TO.N,SWDIO*%
X145000000Y-82800000D03*
%TO.P,R2,2*%
%TO.N,Net-(R2-Pad2)*%
X145000000Y-84800000D03*
%TD*%
D15*
%TO.P,TP1,1,1*%
%TO.N,TIM1_CH1*%
X155000000Y-91900000D03*
%TD*%
%TO.P,TP6,1,1*%
%TO.N,TIM4_CH2*%
X128200000Y-83200000D03*
%TD*%
D16*
%TO.P,C16,1*%
%TO.N,+3.3V*%
X159600000Y-65000000D03*
%TO.P,C16,2*%
%TO.N,GND*%
X159600000Y-66900000D03*
%TD*%
D15*
%TO.P,TP4,1,1*%
%TO.N,TIM3_CH2*%
X133800000Y-83200000D03*
%TD*%
D16*
%TO.P,C17,1*%
%TO.N,+3.3V*%
X126200000Y-74850000D03*
%TO.P,C17,2*%
%TO.N,GND*%
X126200000Y-76750000D03*
%TD*%
D15*
%TO.P,TP2,1,1*%
%TO.N,TIM1_CH2*%
X155000000Y-89000000D03*
%TD*%
D12*
%TO.P,C15,1*%
%TO.N,+3.3V*%
X144075000Y-111805000D03*
%TO.P,C15,2*%
%TO.N,GND*%
X144075000Y-109905000D03*
%TD*%
D25*
%TO.P,C11,1*%
%TO.N,+3.3V*%
X132650000Y-101250000D03*
%TO.P,C11,2*%
%TO.N,GND*%
X130750000Y-101250000D03*
%TD*%
D15*
%TO.P,TP7,1,1*%
%TO.N,COMP1_OUT*%
X120100000Y-103400000D03*
%TD*%
D13*
%TO.P,J2,1,Pin_1*%
%TO.N,GND*%
X120000000Y-89000000D03*
D14*
%TO.P,J2,2,Pin_2*%
%TO.N,Net-(J2-Pad2)*%
X122540000Y-89000000D03*
%TD*%
D27*
%TO.P,U2,1,VIN*%
%TO.N,+5V*%
X137900000Y-118600000D03*
D28*
%TO.P,U2,2,GND*%
%TO.N,GND*%
X139400000Y-116250000D03*
D27*
%TO.P,U2,3,CE*%
%TO.N,+5V*%
X140900000Y-118600000D03*
%TO.P,U2,4,NC*%
%TO.N,unconnected-(U2-Pad4)*%
X140900000Y-113900000D03*
%TO.P,U2,5,VOUT*%
%TO.N,Net-(C7-Pad1)*%
X137900000Y-113900000D03*
%TD*%
D12*
%TO.P,C10,1*%
%TO.N,GND*%
X137800000Y-105050000D03*
%TO.P,C10,2*%
%TO.N,Net-(C10-Pad2)*%
X137800000Y-103150000D03*
%TD*%
D16*
%TO.P,C18,1*%
%TO.N,+3.3V*%
X157500000Y-65000000D03*
%TO.P,C18,2*%
%TO.N,GND*%
X157500000Y-66900000D03*
%TD*%
D15*
%TO.P,TP5,1,1*%
%TO.N,TIM8_CH1*%
X131000000Y-83200000D03*
%TD*%
D17*
%TO.P,R6,1*%
%TO.N,Net-(R6-Pad1)*%
X136600000Y-84800000D03*
%TO.P,R6,2*%
%TO.N,NRST*%
X136600000Y-82800000D03*
%TD*%
D13*
%TO.P,J6,1,Pin_1*%
%TO.N,GND*%
X162555000Y-66040000D03*
D14*
%TO.P,J6,2,Pin_2*%
%TO.N,+3.3V*%
X165095000Y-66040000D03*
%TO.P,J6,3,Pin_3*%
%TO.N,TFT_D1*%
X162555000Y-68580000D03*
%TO.P,J6,4,Pin_4*%
%TO.N,TFT_D0*%
X165095000Y-68580000D03*
%TO.P,J6,5,Pin_5*%
%TO.N,TFT_D3*%
X162555000Y-71120000D03*
%TO.P,J6,6,Pin_6*%
%TO.N,TFT_D2*%
X165095000Y-71120000D03*
%TO.P,J6,7,Pin_7*%
%TO.N,TFT_D5*%
X162555000Y-73660000D03*
%TO.P,J6,8,Pin_8*%
%TO.N,TFT_D4*%
X165095000Y-73660000D03*
%TO.P,J6,9,Pin_9*%
%TO.N,TFT_D7*%
X162555000Y-76200000D03*
%TO.P,J6,10,Pin_10*%
%TO.N,TFT_D6*%
X165095000Y-76200000D03*
%TO.P,J6,11,Pin_11*%
%TO.N,TFT_D9*%
X162555000Y-78740000D03*
%TO.P,J6,12,Pin_12*%
%TO.N,TFT_D8*%
X165095000Y-78740000D03*
%TO.P,J6,13,Pin_13*%
%TO.N,TFT_D11*%
X162555000Y-81280000D03*
%TO.P,J6,14,Pin_14*%
%TO.N,TFT_D10*%
X165095000Y-81280000D03*
%TO.P,J6,15,Pin_15*%
%TO.N,TFT_D13*%
X162555000Y-83820000D03*
%TO.P,J6,16,Pin_16*%
%TO.N,TFT_D12*%
X165095000Y-83820000D03*
%TO.P,J6,17,Pin_17*%
%TO.N,TFT_D15*%
X162555000Y-86360000D03*
%TO.P,J6,18,Pin_18*%
%TO.N,TFT_D14*%
X165095000Y-86360000D03*
%TO.P,J6,19,Pin_19*%
%TO.N,TFT_RS*%
X162555000Y-88900000D03*
%TO.P,J6,20,Pin_20*%
%TO.N,TFT_CS*%
X165095000Y-88900000D03*
%TO.P,J6,21,Pin_21*%
%TO.N,TFT_RD*%
X162555000Y-91440000D03*
%TO.P,J6,22,Pin_22*%
%TO.N,TFT_WR*%
X165095000Y-91440000D03*
%TO.P,J6,23,Pin_23*%
%TO.N,unconnected-(J6-Pad23)*%
X162555000Y-93980000D03*
%TO.P,J6,24,Pin_24*%
%TO.N,TFT_RESET*%
X165095000Y-93980000D03*
%TO.P,J6,25,Pin_25*%
%TO.N,unconnected-(J6-Pad25)*%
X162555000Y-96520000D03*
%TO.P,J6,26,Pin_26*%
%TO.N,unconnected-(J6-Pad26)*%
X165095000Y-96520000D03*
%TO.P,J6,27,Pin_27*%
%TO.N,unconnected-(J6-Pad27)*%
X162555000Y-99060000D03*
%TO.P,J6,28,Pin_28*%
%TO.N,unconnected-(J6-Pad28)*%
X165095000Y-99060000D03*
%TO.P,J6,29,Pin_29*%
%TO.N,unconnected-(J6-Pad29)*%
X162555000Y-101600000D03*
%TO.P,J6,30,Pin_30*%
%TO.N,unconnected-(J6-Pad30)*%
X165095000Y-101600000D03*
%TO.P,J6,31,Pin_31*%
%TO.N,unconnected-(J6-Pad31)*%
X162555000Y-104140000D03*
%TO.P,J6,32,Pin_32*%
%TO.N,unconnected-(J6-Pad32)*%
X165095000Y-104140000D03*
%TD*%
D22*
%TO.P,C13,1*%
%TO.N,+3.3V*%
X144250000Y-88400000D03*
%TO.P,C13,2*%
%TO.N,GND*%
X146150000Y-88400000D03*
%TD*%
D13*
%TO.P,J7,1,Pin_1*%
%TO.N,+3.3V*%
X150100000Y-104100000D03*
D14*
%TO.P,J7,2,Pin_2*%
%TO.N,GND*%
X150100000Y-101560000D03*
%TO.P,J7,3,Pin_3*%
%TO.N,PB13*%
X152640000Y-104100000D03*
%TO.P,J7,4,Pin_4*%
%TO.N,PA5*%
X152640000Y-101560000D03*
%TO.P,J7,5,Pin_5*%
%TO.N,PB10*%
X155180000Y-104100000D03*
%TO.P,J7,6,Pin_6*%
%TO.N,PA7*%
X155180000Y-101560000D03*
%TO.P,J7,7,Pin_7*%
%TO.N,PB0*%
X157720000Y-104100000D03*
%TO.P,J7,8,Pin_8*%
%TO.N,PA10*%
X157720000Y-101560000D03*
%TD*%
D29*
%TO.N,GND*%
X141954977Y-101845023D03*
X156000000Y-66900000D03*
%TO.N,+3.3V*%
X156000000Y-65100000D03*
D30*
%TO.N,SPI_CS*%
X124500000Y-86100000D03*
%TO.N,SPI_RESET*%
X123400000Y-86100000D03*
D29*
%TO.N,GND*%
X135200000Y-90350500D03*
D30*
%TO.N,Net-(R6-Pad1)*%
X136600000Y-90500000D03*
D29*
%TO.N,GND*%
X137800000Y-106200000D03*
X119975000Y-96575000D03*
X140000000Y-106200000D03*
X120000000Y-86700000D03*
X133300000Y-70800000D03*
X139400000Y-101900000D03*
X132900000Y-75200000D03*
X142200000Y-106200000D03*
X162900000Y-107200000D03*
X147400000Y-101635000D03*
X160500000Y-109400000D03*
X160900000Y-111400000D03*
X131000000Y-98700000D03*
X146500000Y-86900000D03*
X135600000Y-106200000D03*
X130700000Y-102600000D03*
X162900000Y-111600000D03*
X145900000Y-90600000D03*
X165100000Y-109400000D03*
X164900000Y-111400000D03*
X160900000Y-107400000D03*
X127650000Y-76750000D03*
X130300000Y-86800000D03*
X130985465Y-96739354D03*
X164900000Y-107400000D03*
%TO.N,+3.3V*%
X147945000Y-109695000D03*
X147945000Y-110695000D03*
X147400000Y-104200000D03*
X148945000Y-110695000D03*
X146945000Y-110695000D03*
X141945000Y-109695000D03*
X144600000Y-103200000D03*
X146945000Y-109695000D03*
X145945000Y-110695000D03*
X145945000Y-109695000D03*
X148945000Y-109695000D03*
X141945000Y-110695000D03*
X139945000Y-109695000D03*
X133115201Y-102715201D03*
X138945000Y-109695000D03*
X139945000Y-110695000D03*
X140945000Y-110695000D03*
X132200000Y-86800000D03*
X140945000Y-109695000D03*
X144600000Y-86800000D03*
X138945000Y-110695000D03*
X128900000Y-73300000D03*
D30*
%TO.N,JTDI*%
X140800000Y-79000000D03*
%TO.N,SWDCLK*%
X138800000Y-75200000D03*
%TO.N,SWDIO*%
X140200000Y-74300000D03*
%TO.N,SWO*%
X132400000Y-76200000D03*
%TO.N,TFT_D1*%
X147300000Y-95000000D03*
X147320000Y-68580000D03*
X134200000Y-95000000D03*
%TO.N,TFT_D0*%
X131400000Y-94500000D03*
X147900000Y-69900000D03*
X147900000Y-94500000D03*
%TO.N,TFT_D3*%
X148536043Y-95136043D03*
X134200000Y-96000000D03*
X148500000Y-71200000D03*
%TO.N,TFT_D2*%
X131400000Y-95500000D03*
X149100000Y-93300000D03*
X149100000Y-72300000D03*
%TO.N,TFT_D5*%
X138200000Y-98900000D03*
X150300000Y-73700000D03*
X150300000Y-98449500D03*
%TO.N,TFT_D4*%
X149800000Y-74900000D03*
X148500000Y-98100000D03*
X137200000Y-98900000D03*
%TO.N,TFT_D7*%
X147300000Y-96500000D03*
X150800000Y-92200000D03*
X150900000Y-76200000D03*
%TO.N,TFT_D6*%
X151500000Y-91500000D03*
X151500000Y-77400000D03*
X149250500Y-95800000D03*
%TO.N,TFT_D9*%
X152100000Y-89949500D03*
X146870500Y-94050500D03*
X152100000Y-78700000D03*
%TO.N,TFT_D8*%
X152700000Y-80000000D03*
X152600000Y-90400000D03*
X149234345Y-94437741D03*
%TO.N,TFT_D11*%
X140200000Y-87700000D03*
%TO.N,TFT_D10*%
X140680000Y-90498000D03*
%TO.N,TFT_D13*%
X154500000Y-83800000D03*
X134200000Y-91500000D03*
%TO.N,TFT_D12*%
X139700000Y-90500000D03*
%TO.N,TFT_D15*%
X134200000Y-92500000D03*
%TO.N,TFT_D14*%
X131400000Y-92000000D03*
%TO.N,TFT_RS*%
X158000000Y-96400000D03*
X149500000Y-98350500D03*
%TO.N,TFT_CS*%
X152500000Y-98800500D03*
X158600000Y-97000000D03*
%TO.N,TFT_RD*%
X157200000Y-91400000D03*
X157200000Y-95800000D03*
X146000000Y-97000000D03*
%TO.N,TFT_WR*%
X159300000Y-97500000D03*
X139200000Y-98900000D03*
%TO.N,TFT_RESET*%
X145500000Y-96500000D03*
%TO.N,PB13*%
X146600000Y-97500000D03*
X157200000Y-97500000D03*
%TO.N,PB10*%
X141132155Y-98967845D03*
%TO.N,PB0*%
X138200000Y-101800000D03*
%TO.N,PA10*%
X153300000Y-88300000D03*
X142700000Y-93000000D03*
%TO.N,PA5*%
X135700000Y-98900000D03*
X151000000Y-99900000D03*
%TO.N,SPI_SCK*%
X131400000Y-93500000D03*
%TO.N,SPI_MOSI*%
X138900000Y-91068000D03*
%TO.N,SPI_RESET*%
X134500000Y-87000000D03*
X139200000Y-87700000D03*
%TO.N,Net-(R6-Pad1)*%
X137200000Y-86568000D03*
%TO.N,TIM1_CH1*%
X142700000Y-94000000D03*
%TO.N,TIM1_CH2*%
X145500000Y-93500000D03*
%TO.N,TIM16_CH2*%
X145500000Y-92000000D03*
%TO.N,Net-(ENCODER1-Pad1)*%
X138200000Y-86200000D03*
%TD*%
D31*
%TO.N,NRST*%
X134462500Y-67467500D02*
X135890000Y-66040000D01*
X134462500Y-74250000D02*
X134462500Y-67467500D01*
%TO.N,PA5*%
X151468000Y-100388000D02*
X152640000Y-101560000D01*
X151468000Y-100368000D02*
X151468000Y-100388000D01*
X151000000Y-99900000D02*
X151468000Y-100368000D01*
%TO.N,PA10*%
X153300000Y-88300000D02*
X153300000Y-94900000D01*
X157720000Y-99320000D02*
X157720000Y-101560000D01*
%TO.N,PA7*%
X136680000Y-98720000D02*
X136680000Y-100404500D01*
%TO.N,PA10*%
X153300000Y-94900000D02*
X157720000Y-99320000D01*
%TO.N,PA7*%
X136950000Y-98450000D02*
X136680000Y-98720000D01*
X142100000Y-99300000D02*
X141250000Y-98450000D01*
X153445000Y-99300000D02*
X142100000Y-99300000D01*
X155180000Y-101035000D02*
X153445000Y-99300000D01*
X155180000Y-101560000D02*
X155180000Y-101035000D01*
%TO.N,PB13*%
X154140000Y-105600000D02*
X152640000Y-104100000D01*
X159100000Y-105600000D02*
X154140000Y-105600000D01*
X159500000Y-99800000D02*
X159500000Y-105200000D01*
X157200000Y-97500000D02*
X159500000Y-99800000D01*
D32*
%TO.N,GND*%
X146080000Y-101635000D02*
X146045000Y-101600000D01*
X150025000Y-101635000D02*
X146080000Y-101635000D01*
X150100000Y-101560000D02*
X150025000Y-101635000D01*
%TO.N,+3.3V*%
X150025000Y-104175000D02*
X150100000Y-104100000D01*
X147425000Y-104175000D02*
X150025000Y-104175000D01*
X147400000Y-104200000D02*
X147425000Y-104175000D01*
D31*
%TO.N,PB13*%
X159500000Y-105200000D02*
X159100000Y-105600000D01*
%TO.N,PA7*%
X141250000Y-98450000D02*
X136950000Y-98450000D01*
D32*
%TO.N,+3.3VA*%
X143500000Y-104450000D02*
X142200000Y-103150000D01*
X143500000Y-107000000D02*
X143500000Y-104450000D01*
X136210000Y-109755000D02*
X138565000Y-107400000D01*
X135185000Y-109755000D02*
X136210000Y-109755000D01*
X138565000Y-107400000D02*
X143100000Y-107400000D01*
X143100000Y-107400000D02*
X143500000Y-107000000D01*
X134055000Y-109755000D02*
X128400000Y-104100000D01*
X135185000Y-109755000D02*
X134055000Y-109755000D01*
D31*
%TO.N,Net-(C4-Pad1)*%
X129300000Y-102700000D02*
X130300000Y-103700000D01*
X126400000Y-102700000D02*
X129300000Y-102700000D01*
X134100000Y-103700000D02*
X134700000Y-103100000D01*
X134700000Y-103100000D02*
X135550000Y-103100000D01*
X125860000Y-103240000D02*
X126400000Y-102700000D01*
X125860000Y-111720000D02*
X125860000Y-103240000D01*
X130300000Y-103700000D02*
X134100000Y-103700000D01*
D33*
%TO.N,+5V*%
X146750000Y-120800000D02*
X149608000Y-120800000D01*
X149608000Y-120800000D02*
X149679000Y-120729000D01*
X146679000Y-120729000D02*
X146750000Y-120800000D01*
X137900000Y-118600000D02*
X137900000Y-120700000D01*
X135350000Y-120800000D02*
X137945000Y-120800000D01*
X135185000Y-119425000D02*
X135185000Y-120635000D01*
X135185000Y-120635000D02*
X135350000Y-120800000D01*
D32*
%TO.N,GND*%
X160100000Y-112200000D02*
X162900000Y-109400000D01*
X154800000Y-112200000D02*
X160100000Y-112200000D01*
X150652000Y-116348000D02*
X154800000Y-112200000D01*
X148179000Y-116348000D02*
X150652000Y-116348000D01*
D33*
%TO.N,+5V*%
X158680000Y-118700000D02*
X162900000Y-114480000D01*
X149745000Y-120795000D02*
X151840000Y-118700000D01*
X151840000Y-118700000D02*
X158680000Y-118700000D01*
X149679000Y-120729000D02*
X149745000Y-120795000D01*
X144145000Y-120795000D02*
X146745000Y-120795000D01*
X140945000Y-120795000D02*
X144145000Y-120795000D01*
X140900000Y-120750000D02*
X140945000Y-120795000D01*
X138055000Y-120795000D02*
X140945000Y-120795000D01*
D32*
%TO.N,GND*%
X147500000Y-106500000D02*
X159100000Y-106500000D01*
X145300000Y-108700000D02*
X147500000Y-106500000D01*
X160000000Y-106500000D02*
X162900000Y-109400000D01*
X159000000Y-106500000D02*
X160000000Y-106500000D01*
D31*
%TO.N,COMP1_OUT*%
X135229641Y-101520000D02*
X136180000Y-101520000D01*
X133384440Y-103365201D02*
X135229641Y-101520000D01*
X122400000Y-101100000D02*
X128280761Y-101100000D01*
X128280761Y-101100000D02*
X130545962Y-103365201D01*
X120100000Y-103400000D02*
X122400000Y-101100000D01*
X130545962Y-103365201D02*
X133384440Y-103365201D01*
X136180000Y-101520000D02*
X136180000Y-100404500D01*
D32*
%TO.N,GND*%
X141900000Y-101900000D02*
X141954977Y-101845023D01*
X141680000Y-101680000D02*
X141900000Y-101900000D01*
X141680000Y-100417000D02*
X141680000Y-101680000D01*
X139680000Y-101620000D02*
X139680000Y-100417000D01*
X139400000Y-101900000D02*
X139680000Y-101620000D01*
X144075000Y-109905000D02*
X145285000Y-108695000D01*
X144075000Y-116565000D02*
X147962000Y-116565000D01*
X147962000Y-116565000D02*
X148179000Y-116348000D01*
X144075000Y-116565000D02*
X144075000Y-117525000D01*
X144075000Y-115610000D02*
X144075000Y-116565000D01*
X143435000Y-116250000D02*
X144075000Y-115610000D01*
X139400000Y-116250000D02*
X143435000Y-116250000D01*
X135185000Y-116555000D02*
X135185000Y-115615000D01*
X135185000Y-117525000D02*
X135185000Y-116555000D01*
X135185000Y-116555000D02*
X139095000Y-116555000D01*
X139095000Y-116555000D02*
X139400000Y-116250000D01*
D31*
%TO.N,TFT_D13*%
X154520000Y-83820000D02*
X162555000Y-83820000D01*
X154500000Y-83800000D02*
X154520000Y-83820000D01*
D32*
%TO.N,GND*%
X159600000Y-66900000D02*
X161695000Y-66900000D01*
X161695000Y-66900000D02*
X162555000Y-66040000D01*
X157500000Y-66900000D02*
X159600000Y-66900000D01*
X157500000Y-66900000D02*
X156000000Y-66900000D01*
%TO.N,+3.3V*%
X165095000Y-64837919D02*
X165095000Y-66040000D01*
X164357081Y-64100000D02*
X165095000Y-64837919D01*
X159600000Y-65000000D02*
X160500000Y-64100000D01*
X160500000Y-64100000D02*
X164357081Y-64100000D01*
X157500000Y-65000000D02*
X159600000Y-65000000D01*
X156100000Y-65000000D02*
X156000000Y-65100000D01*
X157500000Y-65000000D02*
X156100000Y-65000000D01*
X128270000Y-68580000D02*
X128270000Y-66040000D01*
D31*
%TO.N,SPI_CS*%
X124900000Y-85800000D02*
X124800000Y-85800000D01*
X134788352Y-87900000D02*
X132688352Y-85800000D01*
X135300000Y-87900000D02*
X134788352Y-87900000D01*
X132688352Y-85800000D02*
X124900000Y-85800000D01*
X135680000Y-88280000D02*
X135300000Y-87900000D01*
X135680000Y-89067000D02*
X135680000Y-88280000D01*
X124800000Y-85800000D02*
X124500000Y-86100000D01*
%TO.N,SPI_RESET*%
X134500000Y-87000000D02*
X133000000Y-85500000D01*
X133000000Y-85500000D02*
X124000000Y-85500000D01*
X124000000Y-85500000D02*
X123400000Y-86100000D01*
D32*
%TO.N,GND*%
X135200000Y-90500000D02*
X135200000Y-90350500D01*
X135180000Y-90480000D02*
X135200000Y-90500000D01*
X135180000Y-89067000D02*
X135180000Y-90480000D01*
D31*
%TO.N,Net-(R6-Pad1)*%
X136600000Y-85968000D02*
X137200000Y-86568000D01*
X136600000Y-84800000D02*
X136600000Y-85968000D01*
X136600000Y-92500000D02*
X136600000Y-90500000D01*
X136100000Y-93000000D02*
X136600000Y-92500000D01*
X135108000Y-93992000D02*
X136100000Y-93000000D01*
X134192000Y-93992000D02*
X135108000Y-93992000D01*
%TO.N,SPI_MOSI*%
X142792000Y-92492000D02*
X144092500Y-92492000D01*
X142600000Y-92300000D02*
X142792000Y-92492000D01*
X142600000Y-91600000D02*
X142600000Y-92300000D01*
X142100000Y-91100000D02*
X142600000Y-91600000D01*
X138932000Y-91100000D02*
X142100000Y-91100000D01*
X138900000Y-91068000D02*
X138932000Y-91100000D01*
D32*
%TO.N,GND*%
X119975000Y-96575000D02*
X119975000Y-99300000D01*
X162900000Y-109400000D02*
X164900000Y-107400000D01*
X132767500Y-97992000D02*
X131708000Y-97992000D01*
X162900000Y-109400000D02*
X160500000Y-109400000D01*
X134462500Y-75200000D02*
X132900000Y-75200000D01*
X140000000Y-105050000D02*
X140000000Y-106200000D01*
X125470000Y-77480000D02*
X126200000Y-76750000D01*
X126200000Y-96700000D02*
X126200000Y-97450000D01*
X162900000Y-109400000D02*
X162900000Y-107200000D01*
X130800000Y-87300000D02*
X130800000Y-88350000D01*
X126200000Y-96700000D02*
X131024819Y-96700000D01*
X120000000Y-89000000D02*
X120000000Y-86700000D01*
X126200000Y-96700000D02*
X120100000Y-96700000D01*
X135600000Y-105050000D02*
X135600000Y-106200000D01*
X130300000Y-86800000D02*
X130800000Y-87300000D01*
X142200000Y-105050000D02*
X142200000Y-106200000D01*
X133350000Y-70750000D02*
X133300000Y-70800000D01*
X128890000Y-76750000D02*
X128900000Y-76760000D01*
X131024819Y-96700000D02*
X130985465Y-96739354D01*
X133350000Y-68580000D02*
X133350000Y-70750000D01*
X146150000Y-87250000D02*
X146500000Y-86900000D01*
X122550000Y-77480000D02*
X125470000Y-77480000D01*
X146150000Y-88400000D02*
X146150000Y-90350000D01*
X162900000Y-109400000D02*
X160900000Y-107400000D01*
X144092500Y-91492000D02*
X145008000Y-91492000D01*
X146150000Y-88400000D02*
X146150000Y-87250000D01*
X126200000Y-95850000D02*
X126200000Y-96700000D01*
X137800000Y-105050000D02*
X137800000Y-106200000D01*
X162900000Y-109400000D02*
X164900000Y-111400000D01*
X133350000Y-66040000D02*
X133350000Y-68580000D01*
X145008000Y-91492000D02*
X145900000Y-90600000D01*
X130700000Y-101300000D02*
X130700000Y-102600000D01*
X126200000Y-76750000D02*
X128890000Y-76750000D01*
X119975000Y-93950000D02*
X119975000Y-96575000D01*
X119975000Y-93950000D02*
X119975000Y-99300000D01*
X130750000Y-101250000D02*
X130700000Y-101300000D01*
X162900000Y-109400000D02*
X160900000Y-111400000D01*
X120100000Y-96700000D02*
X119975000Y-96575000D01*
X146150000Y-90350000D02*
X145900000Y-90600000D01*
X119975000Y-96575000D02*
X120175000Y-96575000D01*
X162900000Y-109400000D02*
X162900000Y-111600000D01*
X162900000Y-109400000D02*
X165100000Y-109400000D01*
X131708000Y-97992000D02*
X131000000Y-98700000D01*
D31*
%TO.N,Net-(C2-Pad1)*%
X126200000Y-99350000D02*
X126250000Y-99400000D01*
X133692000Y-96992000D02*
X135180000Y-98480000D01*
X132767500Y-96992000D02*
X133692000Y-96992000D01*
X126250000Y-99400000D02*
X129300000Y-99400000D01*
X126150000Y-99300000D02*
X126200000Y-99350000D01*
X122515000Y-99300000D02*
X126150000Y-99300000D01*
X129300000Y-99400000D02*
X131708000Y-96992000D01*
X135180000Y-98480000D02*
X135180000Y-100404500D01*
X131708000Y-96992000D02*
X132767500Y-96992000D01*
%TO.N,Net-(C3-Pad1)*%
X126200000Y-93950000D02*
X129150000Y-93950000D01*
X131700000Y-96500000D02*
X132759500Y-96500000D01*
X122515000Y-93950000D02*
X126200000Y-93950000D01*
X129150000Y-93950000D02*
X131700000Y-96500000D01*
%TO.N,Net-(C4-Pad1)*%
X136450000Y-102300000D02*
X138500000Y-102300000D01*
X138680000Y-102120000D02*
X138680000Y-100404500D01*
X138500000Y-102300000D02*
X138680000Y-102120000D01*
X135600000Y-103150000D02*
X136450000Y-102300000D01*
D32*
%TO.N,+3.3V*%
X133950500Y-88350000D02*
X134677600Y-89077100D01*
X132700000Y-88350000D02*
X133950500Y-88350000D01*
X144250000Y-87150000D02*
X144600000Y-86800000D01*
X132650000Y-101250000D02*
X132650000Y-98609500D01*
X132700000Y-87300000D02*
X132700000Y-88350000D01*
X142949500Y-100404500D02*
X144145000Y-101600000D01*
X128900000Y-74860000D02*
X128900000Y-73300000D01*
X126200000Y-74850000D02*
X128890000Y-74850000D01*
X132650000Y-101250000D02*
X132650000Y-102250000D01*
X144250000Y-88400000D02*
X144250000Y-87150000D01*
X144075000Y-113710000D02*
X146391000Y-113710000D01*
X132700000Y-88350000D02*
X132700000Y-90924500D01*
X122200000Y-74590000D02*
X122550000Y-74940000D01*
X142180000Y-100404500D02*
X142949500Y-100404500D01*
X122200000Y-71000000D02*
X122200000Y-74590000D01*
X132650000Y-98609500D02*
X132767500Y-98492000D01*
X146391000Y-113710000D02*
X146679000Y-113998000D01*
X145590000Y-111805000D02*
X144075000Y-111805000D01*
X126110000Y-74940000D02*
X126200000Y-74850000D01*
X144092500Y-88557500D02*
X144092500Y-90992000D01*
X144075000Y-113710000D02*
X144075000Y-111805000D01*
X132200000Y-86800000D02*
X132700000Y-87300000D01*
X128270000Y-72670000D02*
X128900000Y-73300000D01*
X144145000Y-102745000D02*
X144600000Y-103200000D01*
X144250000Y-88400000D02*
X144092500Y-88557500D01*
X132650000Y-102250000D02*
X133115201Y-102715201D01*
X128890000Y-74850000D02*
X128900000Y-74860000D01*
X141945000Y-110695000D02*
X142560000Y-111805000D01*
X145945000Y-110695000D02*
X145590000Y-111805000D01*
X132700000Y-90924500D02*
X132765100Y-90989600D01*
X128270000Y-68580000D02*
X128270000Y-72670000D01*
X122550000Y-74940000D02*
X126110000Y-74940000D01*
X142560000Y-111805000D02*
X144075000Y-111805000D01*
X144145000Y-101600000D02*
X144145000Y-102745000D01*
D31*
%TO.N,Net-(C7-Pad1)*%
X137715000Y-113715000D02*
X137900000Y-113900000D01*
X135185000Y-111805000D02*
X135185000Y-113715000D01*
X135185000Y-113715000D02*
X137715000Y-113715000D01*
D32*
%TO.N,+3.3VA*%
X142200000Y-103150000D02*
X140680000Y-101630000D01*
X140680000Y-101630000D02*
X140680000Y-100404500D01*
D31*
%TO.N,Net-(C10-Pad2)*%
X140180000Y-102970000D02*
X140180000Y-100404500D01*
X137800000Y-103150000D02*
X140000000Y-103150000D01*
X140000000Y-103150000D02*
X140180000Y-102970000D01*
%TO.N,JTDI*%
X140800000Y-79000000D02*
X137950000Y-76150000D01*
X140800000Y-82800000D02*
X140800000Y-79000000D01*
X137950000Y-76150000D02*
X136737500Y-76150000D01*
%TO.N,SWDCLK*%
X138800000Y-75200000D02*
X136737500Y-75200000D01*
X142900000Y-82800000D02*
X142900000Y-79300000D01*
X142900000Y-79300000D02*
X138800000Y-75200000D01*
%TO.N,SWDIO*%
X140200000Y-74300000D02*
X136787500Y-74300000D01*
X145000000Y-79100000D02*
X140200000Y-74300000D01*
X145000000Y-82800000D02*
X145000000Y-79100000D01*
X136787500Y-74300000D02*
X136737500Y-74250000D01*
%TO.N,NRST*%
X136600000Y-82800000D02*
X131950000Y-78150000D01*
X134462500Y-74250000D02*
X132450000Y-74250000D01*
X132450000Y-74250000D02*
X132400000Y-74300000D01*
X131950000Y-74750000D02*
X132400000Y-74300000D01*
X131950000Y-78150000D02*
X131950000Y-74750000D01*
%TO.N,SWO*%
X138700000Y-82800000D02*
X138100000Y-82800000D01*
X138100000Y-82800000D02*
X132400000Y-77100000D01*
X134412500Y-76200000D02*
X134462500Y-76150000D01*
X132400000Y-76200000D02*
X134412500Y-76200000D01*
X132400000Y-77100000D02*
X132400000Y-76200000D01*
%TO.N,TFT_D1*%
X147320000Y-94920000D02*
X147400000Y-95000000D01*
X147320000Y-68580000D02*
X147320000Y-94920000D01*
X132767500Y-94992000D02*
X134192000Y-94992000D01*
X134192000Y-94992000D02*
X134200000Y-95000000D01*
X147400000Y-95000000D02*
X147300000Y-95000000D01*
%TO.N,TFT_D0*%
X131408000Y-94492000D02*
X131400000Y-94500000D01*
X132767500Y-94492000D02*
X131408000Y-94492000D01*
X147900000Y-69900000D02*
X147900000Y-94500000D01*
%TO.N,TFT_D3*%
X148500000Y-95100000D02*
X148536043Y-95136043D01*
X132767500Y-95992000D02*
X134192000Y-95992000D01*
X148500000Y-71200000D02*
X148500000Y-95100000D01*
X134192000Y-95992000D02*
X134200000Y-96000000D01*
%TO.N,TFT_D2*%
X132767500Y-95492000D02*
X131408000Y-95492000D01*
X149100000Y-72300000D02*
X149100000Y-93300000D01*
X131408000Y-95492000D02*
X131400000Y-95500000D01*
%TO.N,TFT_D5*%
X138200000Y-98900000D02*
X137680000Y-99420000D01*
X137680000Y-99420000D02*
X137680000Y-100404500D01*
X150300000Y-73700000D02*
X150300000Y-98449500D01*
%TO.N,TFT_D4*%
X148500000Y-98100000D02*
X149800000Y-96800000D01*
X149800000Y-96800000D02*
X149800000Y-74900000D01*
X137180000Y-98920000D02*
X137180000Y-100404500D01*
X137200000Y-98900000D02*
X137180000Y-98920000D01*
%TO.N,TFT_D7*%
X150800000Y-92200000D02*
X150800000Y-76300000D01*
X150800000Y-76300000D02*
X150900000Y-76200000D01*
X144092500Y-95492000D02*
X146292000Y-95492000D01*
X146292000Y-95492000D02*
X147300000Y-96500000D01*
%TO.N,TFT_D6*%
X149250500Y-95800000D02*
X148100500Y-96950000D01*
X145992000Y-95992000D02*
X144092500Y-95992000D01*
X148100500Y-96950000D02*
X146950000Y-96950000D01*
X146950000Y-96950000D02*
X145992000Y-95992000D01*
X151500000Y-77400000D02*
X151500000Y-91500000D01*
%TO.N,TFT_D9*%
X146870500Y-94050500D02*
X146049500Y-94050500D01*
X145600000Y-94500000D02*
X144100500Y-94500000D01*
X146049500Y-94050500D02*
X145600000Y-94500000D01*
X152100000Y-78700000D02*
X152100000Y-89949500D01*
%TO.N,TFT_D8*%
X152700000Y-90300000D02*
X152600000Y-90400000D01*
X148608483Y-95700000D02*
X147136397Y-95700000D01*
X147136397Y-95700000D02*
X146428397Y-94992000D01*
X146428397Y-94992000D02*
X144092500Y-94992000D01*
X152700000Y-80000000D02*
X152700000Y-90300000D01*
X149234345Y-94437741D02*
X149234345Y-95074138D01*
X149234345Y-95074138D02*
X148608483Y-95700000D01*
%TO.N,TFT_D11*%
X140180000Y-87720000D02*
X140200000Y-87700000D01*
X140180000Y-89079500D02*
X140180000Y-87720000D01*
%TO.N,TFT_D10*%
X140680000Y-90498000D02*
X140680000Y-89079500D01*
%TO.N,TFT_D13*%
X132767500Y-91492000D02*
X134192000Y-91492000D01*
X134192000Y-91492000D02*
X134200000Y-91500000D01*
%TO.N,TFT_D12*%
X139680000Y-90480000D02*
X139700000Y-90500000D01*
X139680000Y-89079500D02*
X139680000Y-90480000D01*
%TO.N,TFT_D15*%
X134192000Y-92492000D02*
X134200000Y-92500000D01*
X132767500Y-92492000D02*
X134192000Y-92492000D01*
%TO.N,TFT_D14*%
X131408000Y-91992000D02*
X131400000Y-92000000D01*
X132767500Y-91992000D02*
X131408000Y-91992000D01*
%TO.N,TFT_RS*%
X149222357Y-98628143D02*
X145390407Y-98628143D01*
X159100000Y-88900000D02*
X162555000Y-88900000D01*
X144754264Y-97992000D02*
X144092500Y-97992000D01*
X158000000Y-90000000D02*
X159100000Y-88900000D01*
X145390407Y-98628143D02*
X144754264Y-97992000D01*
X158000000Y-96400000D02*
X158000000Y-90000000D01*
X149500000Y-98350500D02*
X149222357Y-98628143D01*
%TO.N,TFT_CS*%
X152372357Y-98928143D02*
X144528643Y-98928143D01*
X158600000Y-97000000D02*
X158600000Y-91100000D01*
X159400000Y-90300000D02*
X163695000Y-90300000D01*
X158600000Y-91100000D02*
X159400000Y-90300000D01*
X152500000Y-98800500D02*
X152372357Y-98928143D01*
X163695000Y-90300000D02*
X165095000Y-88900000D01*
X144528643Y-98928143D02*
X144092500Y-98492000D01*
%TO.N,TFT_RD*%
X145992000Y-96992000D02*
X144092500Y-96992000D01*
X157200000Y-91400000D02*
X157200000Y-95800000D01*
X146000000Y-97000000D02*
X145992000Y-96992000D01*
%TO.N,TFT_WR*%
X139180000Y-98920000D02*
X139180000Y-100404500D01*
X160000000Y-92600000D02*
X163935000Y-92600000D01*
X139200000Y-98900000D02*
X139180000Y-98920000D01*
X159300000Y-97500000D02*
X159300000Y-93300000D01*
X159300000Y-93300000D02*
X160000000Y-92600000D01*
X163935000Y-92600000D02*
X165095000Y-91440000D01*
%TO.N,TFT_RESET*%
X145492000Y-96492000D02*
X145500000Y-96500000D01*
X144092500Y-96492000D02*
X145492000Y-96492000D01*
%TO.N,PB13*%
X146592000Y-97492000D02*
X146600000Y-97500000D01*
X144092500Y-97492000D02*
X146592000Y-97492000D01*
%TO.N,PB10*%
X141180000Y-99015690D02*
X141132155Y-98967845D01*
X141180000Y-100404500D02*
X141180000Y-99015690D01*
%TO.N,PB0*%
X138200000Y-100424500D02*
X138180000Y-100404500D01*
X138200000Y-101800000D02*
X138200000Y-100424500D01*
%TO.N,PA10*%
X142708000Y-92992000D02*
X142700000Y-93000000D01*
X144092500Y-92992000D02*
X142708000Y-92992000D01*
%TO.N,PA5*%
X135680000Y-98920000D02*
X135700000Y-98900000D01*
X135680000Y-100404500D02*
X135680000Y-98920000D01*
%TO.N,SPI_SCK*%
X132767500Y-93492000D02*
X131408000Y-93492000D01*
X131408000Y-93492000D02*
X131400000Y-93500000D01*
%TO.N,SPI_DC*%
X133800000Y-85200000D02*
X136180000Y-87580000D01*
X136180000Y-87580000D02*
X136180000Y-89079500D01*
X122650000Y-85200000D02*
X133800000Y-85200000D01*
X120010000Y-82560000D02*
X122650000Y-85200000D01*
%TO.N,SPI_RESET*%
X139180000Y-87720000D02*
X139200000Y-87700000D01*
X139180000Y-89079500D02*
X139180000Y-87720000D01*
%TO.N,Net-(J2-Pad2)*%
X126000000Y-89000000D02*
X126100000Y-88900000D01*
X122540000Y-89000000D02*
X126000000Y-89000000D01*
%TO.N,Net-(R2-Pad2)*%
X142180000Y-87620000D02*
X142180000Y-89079500D01*
X145000000Y-84800000D02*
X142180000Y-87620000D01*
%TO.N,Net-(R3-Pad2)*%
X141680000Y-87320000D02*
X141680000Y-89079500D01*
X142900000Y-86100000D02*
X141680000Y-87320000D01*
X142900000Y-84800000D02*
X142900000Y-86100000D01*
%TO.N,Net-(J8-Pad1)*%
X120200000Y-71000000D02*
X120200000Y-74750000D01*
X120200000Y-74750000D02*
X120010000Y-74940000D01*
%TO.N,Net-(R5-Pad1)*%
X130592000Y-92992000D02*
X132767500Y-92992000D01*
X128100000Y-88900000D02*
X128100000Y-90500000D01*
X128100000Y-90500000D02*
X130592000Y-92992000D01*
%TO.N,Net-(R6-Pad1)*%
X132767500Y-93992000D02*
X134192000Y-93992000D01*
%TO.N,TIM1_CH1*%
X142708000Y-93992000D02*
X142700000Y-94000000D01*
X144092500Y-93992000D02*
X142708000Y-93992000D01*
%TO.N,TIM1_CH2*%
X144092500Y-93492000D02*
X145492000Y-93492000D01*
X145492000Y-93492000D02*
X145500000Y-93500000D01*
%TO.N,TIM16_CH2*%
X144092500Y-91992000D02*
X145492000Y-91992000D01*
X145492000Y-91992000D02*
X145500000Y-92000000D01*
%TO.N,TIM3_CH2*%
X137680000Y-89079500D02*
X137680000Y-87780000D01*
X137680000Y-87780000D02*
X133800000Y-83900000D01*
X133800000Y-83900000D02*
X133800000Y-83200000D01*
%TO.N,TIM8_CH1*%
X134075736Y-84600000D02*
X132400000Y-84600000D01*
X137180000Y-89079500D02*
X137180000Y-87704264D01*
X137180000Y-87704264D02*
X134075736Y-84600000D01*
X132400000Y-84600000D02*
X131000000Y-83200000D01*
%TO.N,TIM4_CH2*%
X136680000Y-87628528D02*
X133951472Y-84900000D01*
X129900000Y-84900000D02*
X128200000Y-83200000D01*
X133951472Y-84900000D02*
X129900000Y-84900000D01*
X136680000Y-89079500D02*
X136680000Y-87628528D01*
D33*
%TO.N,+5V*%
X144075000Y-120725000D02*
X144145000Y-120795000D01*
X144075000Y-119425000D02*
X144075000Y-120725000D01*
X146745000Y-120795000D02*
X146679000Y-120729000D01*
X149679000Y-118698000D02*
X149679000Y-120729000D01*
X146679000Y-118698000D02*
X146679000Y-120729000D01*
X140900000Y-118600000D02*
X140900000Y-120750000D01*
D31*
%TO.N,Net-(ENCODER1-Pad1)*%
X138180000Y-86220000D02*
X138180000Y-89079500D01*
X138200000Y-86200000D02*
X138180000Y-86220000D01*
%TO.N,Net-(R1-Pad1)*%
X138680000Y-84820000D02*
X138680000Y-89079500D01*
X138700000Y-84800000D02*
X138680000Y-84820000D01*
%TO.N,Net-(R4-Pad2)*%
X140800000Y-84800000D02*
X141180000Y-85180000D01*
X141180000Y-85180000D02*
X141180000Y-89079500D01*
%TD*%
%TA.AperFunction,Conductor*%
%TO.N,+3.3V*%
G36*
X149887121Y-109215002D02*
G01*
X149933614Y-109268658D01*
X149945000Y-109321000D01*
X149945000Y-111569000D01*
X149924998Y-111637121D01*
X149871342Y-111683614D01*
X149819000Y-111695000D01*
X145571000Y-111695000D01*
X145502879Y-111674998D01*
X145456386Y-111621342D01*
X145445000Y-111569000D01*
X145445000Y-109518449D01*
X145465002Y-109450328D01*
X145481905Y-109429354D01*
X145646600Y-109264659D01*
X145671557Y-109245300D01*
X145699978Y-109228492D01*
X145699980Y-109228490D01*
X145706807Y-109224453D01*
X145710304Y-109220956D01*
X145775153Y-109195494D01*
X145786296Y-109195000D01*
X149819000Y-109195000D01*
X149887121Y-109215002D01*
G37*
%TD.AperFunction*%
%TD*%
%TA.AperFunction,Conductor*%
%TO.N,+3.3V*%
G36*
X142387121Y-109215002D02*
G01*
X142433614Y-109268658D01*
X142445000Y-109321000D01*
X142445000Y-111569000D01*
X142424998Y-111637121D01*
X142371342Y-111683614D01*
X142319000Y-111695000D01*
X138571000Y-111695000D01*
X138502879Y-111674998D01*
X138456386Y-111621342D01*
X138445000Y-111569000D01*
X138445000Y-109321000D01*
X138465002Y-109252879D01*
X138518658Y-109206386D01*
X138571000Y-109195000D01*
X142319000Y-109195000D01*
X142387121Y-109215002D01*
G37*
%TD.AperFunction*%
%TD*%
%TA.AperFunction,Conductor*%
%TO.N,+5V*%
G36*
X161744908Y-112620002D02*
G01*
X161791401Y-112673658D01*
X161801505Y-112743932D01*
X161772011Y-112808512D01*
X161751244Y-112827174D01*
X161751329Y-112827280D01*
X161749458Y-112828779D01*
X161748689Y-112829470D01*
X161747983Y-112829960D01*
X161685053Y-112880377D01*
X161676584Y-112892500D01*
X161682980Y-112903770D01*
X162887188Y-114107978D01*
X162901132Y-114115592D01*
X162902965Y-114115461D01*
X162909580Y-114111210D01*
X164116604Y-112904186D01*
X164123795Y-112891017D01*
X164116473Y-112880780D01*
X164069233Y-112842115D01*
X164062260Y-112837159D01*
X164056181Y-112833434D01*
X164008549Y-112780787D01*
X163996941Y-112710746D01*
X164025043Y-112645548D01*
X164083932Y-112605893D01*
X164122014Y-112600000D01*
X165174000Y-112600000D01*
X165242121Y-112620002D01*
X165288614Y-112673658D01*
X165300000Y-112726000D01*
X165300000Y-118974000D01*
X165279998Y-119042121D01*
X165226342Y-119088614D01*
X165174000Y-119100000D01*
X152100000Y-119100000D01*
X150036905Y-121163095D01*
X149974593Y-121197121D01*
X149947810Y-121200000D01*
X133626000Y-121200000D01*
X133557879Y-121179998D01*
X133511386Y-121126342D01*
X133500000Y-121074000D01*
X133500000Y-119722095D01*
X133952001Y-119722095D01*
X133952338Y-119728614D01*
X133962257Y-119824206D01*
X133965149Y-119837600D01*
X134016588Y-119991784D01*
X134022761Y-120004962D01*
X134108063Y-120142807D01*
X134117099Y-120154208D01*
X134231829Y-120268739D01*
X134243240Y-120277751D01*
X134381243Y-120362816D01*
X134394424Y-120368963D01*
X134548710Y-120420138D01*
X134562086Y-120423005D01*
X134656438Y-120432672D01*
X134662854Y-120433000D01*
X134912885Y-120433000D01*
X134928124Y-120428525D01*
X134929329Y-120427135D01*
X134931000Y-120419452D01*
X134931000Y-119697115D01*
X134926525Y-119681876D01*
X134925135Y-119680671D01*
X134917452Y-119679000D01*
X133970116Y-119679000D01*
X133954877Y-119683475D01*
X133953672Y-119684865D01*
X133952001Y-119692548D01*
X133952001Y-119722095D01*
X133500000Y-119722095D01*
X133500000Y-118926000D01*
X133520002Y-118857879D01*
X133573658Y-118811386D01*
X133626000Y-118800000D01*
X133861204Y-118800000D01*
X133929325Y-118820002D01*
X133975818Y-118873658D01*
X133985922Y-118943932D01*
X133980797Y-118965667D01*
X133964863Y-119013707D01*
X133961995Y-119027086D01*
X133952328Y-119121438D01*
X133952000Y-119127855D01*
X133952000Y-119152885D01*
X133956475Y-119168124D01*
X133957865Y-119169329D01*
X133965548Y-119171000D01*
X135313000Y-119171000D01*
X135381121Y-119191002D01*
X135427614Y-119244658D01*
X135439000Y-119297000D01*
X135439000Y-120414884D01*
X135443475Y-120430123D01*
X135444865Y-120431328D01*
X135452548Y-120432999D01*
X135707095Y-120432999D01*
X135713614Y-120432662D01*
X135809206Y-120422743D01*
X135822600Y-120419851D01*
X135976784Y-120368412D01*
X135989962Y-120362239D01*
X136127807Y-120276937D01*
X136139208Y-120267901D01*
X136253739Y-120153171D01*
X136262751Y-120141760D01*
X136347816Y-120003757D01*
X136353964Y-119990574D01*
X136354407Y-119989238D01*
X136354957Y-119988444D01*
X136357056Y-119983943D01*
X136357826Y-119984302D01*
X136394838Y-119930878D01*
X136460402Y-119903641D01*
X136530283Y-119916174D01*
X136582295Y-119964499D01*
X136600000Y-120028905D01*
X136600000Y-120300000D01*
X137280237Y-120300000D01*
X137324467Y-120308018D01*
X137432394Y-120348478D01*
X137447649Y-120352105D01*
X137498514Y-120357631D01*
X137505328Y-120358000D01*
X137627885Y-120358000D01*
X137643124Y-120353525D01*
X137644329Y-120352135D01*
X137646000Y-120344452D01*
X137646000Y-120300000D01*
X138154000Y-120300000D01*
X138154000Y-120339884D01*
X138158475Y-120355123D01*
X138159865Y-120356328D01*
X138167548Y-120357999D01*
X138294669Y-120357999D01*
X138301490Y-120357629D01*
X138352352Y-120352105D01*
X138367604Y-120348479D01*
X138475533Y-120308018D01*
X138519763Y-120300000D01*
X138633876Y-120300000D01*
X138686218Y-120311386D01*
X138699177Y-120317304D01*
X138755266Y-120342919D01*
X138900000Y-120363729D01*
X139900000Y-120363729D01*
X139931986Y-120361441D01*
X139966373Y-120358982D01*
X139966374Y-120358982D01*
X139973111Y-120358500D01*
X140113411Y-120317304D01*
X140120992Y-120312432D01*
X140123280Y-120311387D01*
X140175623Y-120300000D01*
X140280237Y-120300000D01*
X140324467Y-120308018D01*
X140432394Y-120348478D01*
X140447649Y-120352105D01*
X140498514Y-120357631D01*
X140505328Y-120358000D01*
X140627885Y-120358000D01*
X140643124Y-120353525D01*
X140644329Y-120352135D01*
X140646000Y-120344452D01*
X140646000Y-120300000D01*
X141154000Y-120300000D01*
X141154000Y-120339884D01*
X141158475Y-120355123D01*
X141159865Y-120356328D01*
X141167548Y-120357999D01*
X141294669Y-120357999D01*
X141301490Y-120357629D01*
X141352352Y-120352105D01*
X141367604Y-120348479D01*
X141475533Y-120308018D01*
X141519763Y-120300000D01*
X143133621Y-120300000D01*
X143199737Y-120318740D01*
X143271243Y-120362816D01*
X143284424Y-120368963D01*
X143438710Y-120420138D01*
X143452086Y-120423005D01*
X143546438Y-120432672D01*
X143552854Y-120433000D01*
X143802885Y-120433000D01*
X143818124Y-120428525D01*
X143819329Y-120427135D01*
X143821000Y-120419452D01*
X143821000Y-120300000D01*
X144329000Y-120300000D01*
X144329000Y-120414884D01*
X144333475Y-120430123D01*
X144334865Y-120431328D01*
X144342548Y-120432999D01*
X144597095Y-120432999D01*
X144603614Y-120432662D01*
X144699206Y-120422743D01*
X144712600Y-120419851D01*
X144866784Y-120368412D01*
X144879962Y-120362239D01*
X144950067Y-120318856D01*
X145016370Y-120300000D01*
X145909572Y-120300000D01*
X145977693Y-120320002D01*
X145985137Y-120325174D01*
X146075352Y-120392786D01*
X146090946Y-120401324D01*
X146211394Y-120446478D01*
X146226649Y-120450105D01*
X146277514Y-120455631D01*
X146284328Y-120456000D01*
X146406885Y-120456000D01*
X146422124Y-120451525D01*
X146423329Y-120450135D01*
X146425000Y-120442452D01*
X146425000Y-120300000D01*
X146933000Y-120300000D01*
X146933000Y-120437884D01*
X146937475Y-120453123D01*
X146938865Y-120454328D01*
X146946548Y-120455999D01*
X147073669Y-120455999D01*
X147080490Y-120455629D01*
X147131352Y-120450105D01*
X147146604Y-120446479D01*
X147267054Y-120401324D01*
X147290517Y-120388478D01*
X147291907Y-120391016D01*
X147344666Y-120371308D01*
X147406058Y-120382369D01*
X147477257Y-120414884D01*
X147534266Y-120440919D01*
X147679000Y-120461729D01*
X148679000Y-120461729D01*
X148710986Y-120459441D01*
X148745373Y-120456982D01*
X148745374Y-120456982D01*
X148752111Y-120456500D01*
X148837839Y-120431328D01*
X148883765Y-120417843D01*
X148883767Y-120417842D01*
X148892411Y-120415304D01*
X148933434Y-120388940D01*
X149001555Y-120368938D01*
X149069676Y-120388940D01*
X149074698Y-120392429D01*
X149090942Y-120401323D01*
X149211394Y-120446478D01*
X149226649Y-120450105D01*
X149277514Y-120455631D01*
X149284328Y-120456000D01*
X149406885Y-120456000D01*
X149422124Y-120451525D01*
X149423329Y-120450135D01*
X149425000Y-120442452D01*
X149425000Y-120437884D01*
X149933000Y-120437884D01*
X149937475Y-120453123D01*
X149938865Y-120454328D01*
X149946548Y-120455999D01*
X150073669Y-120455999D01*
X150080490Y-120455629D01*
X150131352Y-120450105D01*
X150146604Y-120446479D01*
X150267054Y-120401324D01*
X150282649Y-120392786D01*
X150384724Y-120316285D01*
X150397285Y-120303724D01*
X150473786Y-120201649D01*
X150482324Y-120186054D01*
X150527478Y-120065606D01*
X150531105Y-120050351D01*
X150536631Y-119999486D01*
X150537000Y-119992672D01*
X150537000Y-118970115D01*
X150532525Y-118954876D01*
X150531135Y-118953671D01*
X150523452Y-118952000D01*
X149951115Y-118952000D01*
X149935876Y-118956475D01*
X149934671Y-118957865D01*
X149933000Y-118965548D01*
X149933000Y-120437884D01*
X149425000Y-120437884D01*
X149425000Y-120300000D01*
X149800000Y-120300000D01*
X149800000Y-118444000D01*
X150518884Y-118444000D01*
X150534123Y-118439525D01*
X150535328Y-118438135D01*
X150536999Y-118430452D01*
X150536999Y-117526000D01*
X150557001Y-117457879D01*
X150610657Y-117411386D01*
X150662999Y-117400000D01*
X151400000Y-117400000D01*
X152552966Y-116069654D01*
X161675618Y-116069654D01*
X161682673Y-116079627D01*
X161713679Y-116105551D01*
X161720598Y-116110579D01*
X161945272Y-116251515D01*
X161952807Y-116255556D01*
X162194520Y-116364694D01*
X162202551Y-116367680D01*
X162456832Y-116443002D01*
X162465184Y-116444869D01*
X162727340Y-116484984D01*
X162735874Y-116485700D01*
X163001045Y-116489867D01*
X163009596Y-116489418D01*
X163272883Y-116457557D01*
X163281284Y-116455955D01*
X163537824Y-116388653D01*
X163545926Y-116385926D01*
X163790949Y-116284434D01*
X163798617Y-116280628D01*
X164027598Y-116146822D01*
X164034679Y-116142009D01*
X164114655Y-116079301D01*
X164123125Y-116067442D01*
X164116608Y-116055818D01*
X162912812Y-114852022D01*
X162898868Y-114844408D01*
X162897035Y-114844539D01*
X162890420Y-114848790D01*
X161682910Y-116056300D01*
X161675618Y-116069654D01*
X152552966Y-116069654D01*
X153945223Y-114463204D01*
X160887665Y-114463204D01*
X160902932Y-114727969D01*
X160904005Y-114736470D01*
X160955065Y-114996722D01*
X160957276Y-115004974D01*
X161043184Y-115255894D01*
X161046499Y-115263779D01*
X161165664Y-115500713D01*
X161170020Y-115508079D01*
X161299347Y-115696250D01*
X161309601Y-115704594D01*
X161323342Y-115697448D01*
X162527978Y-114492812D01*
X162534356Y-114481132D01*
X163264408Y-114481132D01*
X163264539Y-114482965D01*
X163268790Y-114489580D01*
X164475730Y-115696520D01*
X164487939Y-115703187D01*
X164499439Y-115694497D01*
X164596831Y-115561913D01*
X164601418Y-115554685D01*
X164727962Y-115321621D01*
X164731530Y-115313827D01*
X164825271Y-115065750D01*
X164827748Y-115057544D01*
X164886954Y-114799038D01*
X164888294Y-114790577D01*
X164912031Y-114524616D01*
X164912277Y-114519677D01*
X164912666Y-114482485D01*
X164912523Y-114477519D01*
X164894362Y-114211123D01*
X164893201Y-114202649D01*
X164839419Y-113942944D01*
X164837120Y-113934709D01*
X164748588Y-113684705D01*
X164745191Y-113676854D01*
X164623550Y-113441178D01*
X164619122Y-113433866D01*
X164500031Y-113264417D01*
X164489509Y-113256037D01*
X164476121Y-113263089D01*
X163272022Y-114467188D01*
X163264408Y-114481132D01*
X162534356Y-114481132D01*
X162535592Y-114478868D01*
X162535461Y-114477035D01*
X162531210Y-114470420D01*
X161323814Y-113263024D01*
X161311804Y-113256466D01*
X161300064Y-113265434D01*
X161191935Y-113415911D01*
X161187418Y-113423196D01*
X161063325Y-113657567D01*
X161059839Y-113665395D01*
X160968700Y-113914446D01*
X160966311Y-113922670D01*
X160909812Y-114181795D01*
X160908563Y-114190250D01*
X160887754Y-114454653D01*
X160887665Y-114463204D01*
X153945223Y-114463204D01*
X155297062Y-112903390D01*
X155303184Y-112896816D01*
X155304595Y-112895405D01*
X155366907Y-112861379D01*
X155393690Y-112858500D01*
X160017944Y-112858500D01*
X160029800Y-112859059D01*
X160029803Y-112859059D01*
X160037537Y-112860788D01*
X160108369Y-112858562D01*
X160112327Y-112858500D01*
X160141432Y-112858500D01*
X160145832Y-112857944D01*
X160157664Y-112857012D01*
X160203831Y-112855562D01*
X160224421Y-112849580D01*
X160243782Y-112845570D01*
X160250770Y-112844688D01*
X160257204Y-112843875D01*
X160257205Y-112843875D01*
X160265064Y-112842882D01*
X160272429Y-112839966D01*
X160272433Y-112839965D01*
X160308021Y-112825874D01*
X160319231Y-112822035D01*
X160363600Y-112809145D01*
X160382065Y-112798225D01*
X160399805Y-112789534D01*
X160419756Y-112781635D01*
X160457129Y-112754482D01*
X160467048Y-112747967D01*
X160499977Y-112728493D01*
X160499981Y-112728490D01*
X160506807Y-112724453D01*
X160521971Y-112709289D01*
X160537005Y-112696448D01*
X160547943Y-112688501D01*
X160554357Y-112683841D01*
X160583803Y-112648247D01*
X160591792Y-112639468D01*
X160594355Y-112636905D01*
X160656667Y-112602879D01*
X160683450Y-112600000D01*
X161676787Y-112600000D01*
X161744908Y-112620002D01*
G37*
%TD.AperFunction*%
%TD*%
M02*
